<svg width="182" height="41" viewBox="0 0 182 41" fill="none" xmlns="http://www.w3.org/2000/svg">
<path d="M74.6086 10.4507C75.7966 11.1618 76.3906 12.2353 76.3906 13.6712C76.3906 14.9431 75.9586 15.9619 75.0946 16.7277C74.2306 17.4935 73.0764 17.8765 71.6319 17.8765H65.6582V3.51717H71.2472C72.6647 3.51717 73.7986 3.88641 74.6491 4.62489C75.4996 5.34969 75.9249 6.34116 75.9249 7.59931C75.9249 8.80276 75.4861 9.7532 74.6086 10.4507ZM71.1459 6.79929H69.2829V9.05575H71.1459C71.4699 9.05575 71.7399 8.96002 71.9559 8.76857C72.1854 8.56344 72.3002 8.28309 72.3002 7.92752C72.3002 7.58564 72.1922 7.31213 71.9762 7.10699C71.7602 6.90186 71.4834 6.79929 71.1459 6.79929ZM71.5307 14.5943C71.8952 14.5943 72.1922 14.4849 72.4217 14.2661C72.6512 14.0336 72.7659 13.7396 72.7659 13.3841C72.7659 13.0148 72.6512 12.7208 72.4217 12.502C72.1922 12.2832 71.8952 12.1738 71.5307 12.1738H69.2829V14.5943H71.5307Z" fill="white"/>
<path d="M78.0423 3.51717H81.667V17.8765H78.0423V3.51717Z" fill="white"/>
<path d="M87.723 14.3277H92.6032V17.8765H84.0982V3.51717H87.723V14.3277Z" fill="white"/>
<path d="M97.7538 14.3277H102.634V17.8765H94.129V3.51717H97.7538V14.3277Z" fill="white"/>
<path d="M104.16 3.51717H107.785V17.8765H104.16V3.51717Z" fill="white"/>
<path d="M122.366 16.0303C120.935 17.4662 119.18 18.1842 117.101 18.1842C115.022 18.1842 113.26 17.4662 111.816 16.0303C110.385 14.5807 109.669 12.8028 109.669 10.6968C109.669 8.59079 110.385 6.81981 111.816 5.38388C113.26 3.93427 115.022 3.20947 117.101 3.20947C119.18 3.20947 120.935 3.93427 122.366 5.38388C123.81 6.81981 124.532 8.59079 124.532 10.6968C124.532 12.8028 123.81 14.5807 122.366 16.0303ZM114.367 13.5071C115.096 14.2319 116.007 14.5943 117.101 14.5943C118.194 14.5943 119.105 14.2319 119.834 13.5071C120.563 12.7687 120.928 11.8319 120.928 10.6968C120.928 9.56175 120.563 8.63181 119.834 7.90701C119.105 7.16853 118.194 6.79929 117.101 6.79929C116.007 6.79929 115.096 7.16853 114.367 7.90701C113.638 8.63181 113.274 9.56175 113.274 10.6968C113.274 11.8319 113.638 12.7687 114.367 13.5071Z" fill="white"/>
<path d="M134.233 3.51717H137.837V17.8765H135.043L130.041 10.6558V17.8765H126.416V3.51717H129.231L134.233 10.7378V3.51717Z" fill="white"/>
<path d="M148.93 17.8765L148.323 15.8046H143.605L142.997 17.8765H139.069L143.746 3.51717H148.161L152.839 17.8765H148.93ZM144.536 12.6456H147.391L145.954 7.76342L144.536 12.6456Z" fill="white"/>
<path d="M154.072 3.51717H157.697V17.8765H154.072V3.51717Z" fill="white"/>
<path d="M167.519 17.8765L165.048 13.2405H163.752V17.8765H160.128V3.51717H165.798C167.242 3.51717 168.45 3.98898 169.422 4.93259C170.408 5.86252 170.901 7.04545 170.901 8.48138C170.901 9.34294 170.685 10.1361 170.253 10.8609C169.821 11.572 169.233 12.1396 168.491 12.5635L171.407 17.8765H167.519ZM163.752 6.90186V10.1224H165.757C166.203 10.1361 166.567 9.99253 166.851 9.69166C167.134 9.3908 167.276 9.00105 167.276 8.52241C167.276 8.04377 167.134 7.65401 166.851 7.35315C166.567 7.05229 166.203 6.90186 165.757 6.90186H163.752Z" fill="white"/>
<path d="M176.512 14.4302H182V17.8765H172.888V3.51717H181.899V6.94289H176.512V8.93267H181.392V12.3174H176.512V14.4302Z" fill="white"/>
<path d="M72.9522 37.7667C70.8473 37.7667 69.102 37.0556 67.7165 35.6333C66.3443 34.1974 65.6582 32.4127 65.6582 30.2793C65.6582 28.146 66.3443 26.3681 67.7165 24.9459C69.102 23.51 70.8473 22.792 72.9522 22.792C74.2178 22.792 75.3902 23.0997 76.4693 23.7151C77.5484 24.3305 78.3944 25.1579 79.0072 26.1972L75.9097 28.0229C75.6433 27.5169 75.2436 27.1203 74.7107 26.8331C74.1912 26.5322 73.605 26.3818 72.9522 26.3818C71.8331 26.3818 70.9272 26.7442 70.2344 27.469C69.555 28.1801 69.2153 29.1169 69.2153 30.2793C69.2153 31.4418 69.555 32.3854 70.2344 33.1102C70.9272 33.8213 71.8331 34.1769 72.9522 34.1769C73.605 34.1769 74.1912 34.0333 74.7107 33.7461C75.2436 33.4452 75.6433 33.035 75.9097 32.5153L79.0072 34.3615C78.3944 35.4145 77.5484 36.2487 76.4693 36.8641C75.4035 37.4658 74.2311 37.7667 72.9522 37.7667Z" fill="white"/>
<path d="M84.0646 33.9102H88.8806V37.459H80.4875V23.0997H84.0646V33.9102Z" fill="white"/>
<path d="M99.622 36.3923C98.5962 37.3085 97.2706 37.7667 95.6453 37.7667C94.02 37.7667 92.6878 37.3085 91.6486 36.3923C90.6228 35.476 90.1099 34.2589 90.1099 32.7409V23.0997H93.6869V32.3922C93.6869 33.5956 94.3397 34.1974 95.6453 34.1974C96.9509 34.1974 97.6037 33.5956 97.6037 32.3922V23.0997H101.181V32.7409C101.181 34.2589 100.661 35.476 99.622 36.3923Z" fill="white"/>
<path d="M112.279 30.0332C113.452 30.7443 114.038 31.8178 114.038 33.2538C114.038 34.5256 113.612 35.5444 112.759 36.3102C111.906 37.0761 110.767 37.459 109.342 37.459H103.447V23.0997H108.962C110.361 23.0997 111.48 23.4689 112.319 24.2074C113.159 24.9322 113.578 25.9237 113.578 27.1818C113.578 28.3853 113.145 29.3357 112.279 30.0332ZM108.862 26.3818H107.024V28.6383H108.862C109.182 28.6383 109.448 28.5425 109.662 28.3511C109.888 28.146 110.001 27.8656 110.001 27.51C110.001 27.1682 109.895 26.8946 109.682 26.6895C109.468 26.4844 109.195 26.3818 108.862 26.3818ZM109.242 34.1769C109.602 34.1769 109.895 34.0674 110.121 33.8486C110.348 33.6162 110.461 33.3221 110.461 32.9666C110.461 32.5973 110.348 32.3033 110.121 32.0845C109.895 31.8657 109.602 31.7563 109.242 31.7563H107.024V34.1769H109.242Z" fill="white"/>
<path d="M21.1757 19.9432C23.9731 21.7372 25.3718 24.3141 25.3718 27.6738C25.3718 30.642 24.3147 33.0558 22.2004 34.9151C20.086 36.7743 17.4675 37.7039 14.3448 37.7039H0L0 3.45459L13.369 3.45459C16.4266 3.45459 18.9801 4.36791 21.0293 6.19454C23.1111 7.98855 24.152 10.3371 24.152 13.2401C24.152 15.9801 23.1599 18.2144 21.1757 19.9432ZM13.369 10.7937L7.80672 10.7937L7.80672 16.8608H13.369C14.2473 16.8608 14.9629 16.5835 15.5159 16.029C16.0688 15.4419 16.3453 14.7079 16.3453 13.8272C16.3453 12.9465 16.0688 12.2289 15.5159 11.6744C14.9629 11.0873 14.2473 10.7937 13.369 10.7937ZM14.3448 30.3648C15.3207 30.3648 16.1014 30.0712 16.6869 29.4841C17.2724 28.8643 17.5651 28.0652 17.5651 27.0866C17.5651 26.1081 17.2724 25.3252 16.6869 24.7381C16.1014 24.1184 15.3207 23.8085 14.3448 23.8085H7.80672V30.3648H14.3448Z" fill="white"/>
<path d="M42.8524 38.3888C37.7455 38.3888 33.5006 36.6927 30.1177 33.3004C26.7673 29.8754 29.2396 25.635 29.2396 20.5792C29.2396 15.5233 26.7673 11.2992 30.1177 7.90693C33.5006 4.482 37.7455 2.76953 42.8524 2.76953C45.91 2.76953 48.74 3.48714 51.3422 4.92235C53.9444 6.32494 55.9937 8.24943 57.49 10.6958L50.7567 14.61C50.0086 13.2727 48.9351 12.2452 47.5364 11.5276C46.1377 10.7774 44.5764 10.4022 42.8524 10.4022C39.8273 10.4022 37.404 11.3319 35.5824 13.1911C33.7934 15.0504 32.8988 17.5131 32.8988 20.5792C32.8988 23.6453 33.7934 26.108 35.5824 27.9673C37.404 29.8265 39.8273 30.7561 42.8524 30.7561C44.5764 30.7561 46.1377 30.381 47.5364 29.6308C48.9677 28.8806 50.0411 27.8531 50.7567 26.5484L57.49 30.4626C56.0262 32.909 53.9932 34.8497 51.391 36.285C48.7888 37.6875 45.9426 38.3888 42.8524 38.3888Z" fill="white"/>
<ellipse cx="31.1908" cy="20.5789" rx="3.65952" ry="20.2493" fill="white"/>
<path d="M42.8518 2.0376C46.0281 2.0376 48.9791 2.78416 51.6919 4.27968C54.403 5.74158 56.5484 7.75453 58.1138 10.3139L58.5043 10.9524L50.4806 15.6167L50.1174 14.9673C49.4415 13.7592 48.4757 12.8323 47.2017 12.1787L47.1958 12.1757L47.1899 12.1725C45.9066 11.4842 44.4657 11.1341 42.8518 11.1341C39.9901 11.1341 37.7681 12.0067 36.1069 13.701C34.4748 15.3985 33.6302 17.6656 33.6302 20.5792C33.6302 23.4927 34.4748 25.7599 36.1069 27.4573C37.7681 29.1516 39.9901 30.0242 42.8518 30.0242C44.4657 30.0242 45.9066 29.6741 47.1899 28.9858L47.193 28.9841L47.196 28.9825C48.5111 28.2932 49.474 27.3639 50.1144 26.1964L50.4752 25.5385L58.498 30.2023L58.1175 30.8383C56.5844 33.4006 54.4545 35.4309 51.7439 36.9258L51.7408 36.9275L51.7377 36.9292C49.0238 38.392 46.0575 39.1207 42.8518 39.1207C38.3762 39.1207 34.5106 37.8568 31.2881 35.3217V34.378C34.4633 37.0519 38.3178 38.3888 42.8518 38.3888C45.942 38.3888 48.7882 37.6875 51.3904 36.2849C53.7689 34.9731 55.6719 33.2389 57.0992 31.0823C57.2335 30.8795 57.3636 30.6729 57.4894 30.4625L50.7561 26.5483C50.697 26.6561 50.6355 26.7619 50.5715 26.8659C49.8608 28.0209 48.8489 28.9425 47.5358 29.6308C46.1371 30.381 44.5758 30.7561 42.8518 30.7561C39.8267 30.7561 37.4034 29.8265 35.5818 27.9672C33.7928 26.108 32.8983 23.6453 32.8983 20.5792C32.8983 17.513 33.7928 15.0503 35.5818 13.1911C37.4034 11.3318 39.8267 10.4022 42.8518 10.4022C44.5758 10.4022 46.1371 10.7773 47.5358 11.5275C48.8535 12.2036 49.8825 13.1546 50.6228 14.3806C50.6683 14.456 50.7128 14.5325 50.7561 14.61L57.4894 10.6958C57.3614 10.4865 57.2294 10.2811 57.0933 10.0795C55.6385 7.92398 53.7213 6.20493 51.3416 4.92232C48.7394 3.48711 45.9094 2.7695 42.8518 2.7695C38.3178 2.7695 34.4633 4.11931 31.2881 6.81892V5.87168C34.51 3.31363 38.3756 2.0376 42.8518 2.0376Z" fill="black"/>
</svg>
